<?xml version="1.0" encoding="utf-8"?>
<!-- Generator: Adobe Illustrator 16.0.0, SVG Export Plug-In . SVG Version: 6.00 Build 0)  -->
<!DOCTYPE svg PUBLIC "-//W3C//DTD SVG 1.1//EN" "http://www.w3.org/Graphics/SVG/1.1/DTD/svg11.dtd">
<svg version="1.1" id="Layer_1" xmlns="http://www.w3.org/2000/svg" xmlns:xlink="http://www.w3.org/1999/xlink" x="0px" y="0px"
	 width="512px" height="512px" viewBox="0 0 512 512" enable-background="new 0 0 512 512" xml:space="preserve">
<rect fill="none" width="512" height="512"/>
<g>
	<path d="M237.258,222.031c1.562-0.639,3.691-0.958,6.39-0.958c0.852,0,2.557,0.074,5.112,0.213c2.554,0.142,6.74,0.5,12.564,1.065
		l-23.002-66.453c-5.964-16.897-10.578-27.934-13.844-33.119c-3.27-5.183-6.815-7.774-10.65-7.774c-2.98,0-5.398,1.139-7.241,3.408
		c-1.846,2.272-2.769,5.325-2.769,9.159c0,6.532,2.482,17.892,7.455,34.079c4.97,16.187,12.424,37.415,22.363,63.683
		C234.489,223.771,235.692,222.67,237.258,222.031z"/>
	<path d="M335.977,165.589c5.325-16.826,7.986-27.156,7.986-30.989c0-4.118-0.887-7.312-2.661-9.584
		c-1.778-2.269-4.228-3.408-7.349-3.408c-3.977,0-8.023,3.302-12.141,9.904c-4.12,6.603-8.661,17.22-13.631,31.842l-21.299,61.553
		l26.836,4.686C323.229,203.75,330.652,182.416,335.977,165.589z"/>
	<path d="M209.567,298.601c6.248,8.381,12.141,14.908,17.678,19.595c5.539,4.687,9.938,7.028,13.206,7.028
		c2.414,0,4.612-1.098,6.603-3.301c1.988-2.201,2.981-4.58,2.981-7.137c0-2.695-1.952-8.978-5.856-18.849
		c-3.908-9.868-8.769-19.56-14.59-29.073c-4.26-7.1-8.448-12.459-12.566-16.08c-4.12-3.621-8.022-5.431-11.715-5.431
		c-2.981,0-6.282,1.885-9.904,5.645c-3.62,3.763-5.431,7.277-5.431,10.542c0,3.408,1.775,8.521,5.325,15.336
		C198.845,283.691,203.604,290.933,209.567,298.601z"/>
	<path d="M255.549,46.956c-122.808,0-222.138,99.33-222.138,222.138c0,122.807,99.33,222.137,222.138,222.137
		s222.137-99.33,222.137-222.137C478.59,146.286,378.357,46.956,255.549,46.956z M331.717,376.874
		c-21.512,22.787-49.023,34.182-82.532,34.182c-13.206,0-26.021-2.379-38.444-7.136c-12.428-4.757-23.11-11.396-32.055-19.915
		c-10.224-9.367-17.892-19.271-23.003-29.707c-5.111-10.438-7.667-21.119-7.667-32.056c0-12.211,2.627-21.651,7.88-28.327
		c5.25-6.674,13.557-11.215,24.919-13.631c-2.129-4.971-3.694-9.159-4.686-12.566c-0.994-3.408-1.491-6.035-1.491-7.881
		c0-6.389,3.373-12.918,10.117-19.595c6.742-6.673,13.099-10.01,19.062-10.01c2.556,0,5.25,0.461,8.093,1.385
		c2.841,0.926,6.104,2.449,9.798,4.579c-10.937-30.955-18.885-54.844-23.854-71.671c-4.974-16.826-7.455-28.434-7.455-34.823
		c0-8.803,2.269-15.793,6.815-20.979c4.545-5.184,10.722-7.776,18.531-7.776c13.345,0,30.243,29.819,50.69,89.455
		c3.547,10.223,6.248,18.104,8.094,23.641c1.562-4.398,3.76-10.649,6.603-18.743c20.447-59.068,38.052-88.604,52.821-88.604
		c7.241,0,13.025,2.45,17.358,7.349c4.331,4.898,6.496,11.469,6.496,19.702c0,6.25-2.379,17.677-7.136,34.291
		c-4.759,16.613-11.962,38.338-21.617,65.174c12.777,2.417,21.795,7.81,27.049,16.187c5.252,8.38,7.881,21.585,7.881,39.617
		C363.984,324.798,353.229,354.084,331.717,376.874z"/>
	<path d="M262.816,307.759c3.407-4.26,6.992-8.126,10.756-11.607c3.759-3.479,7.699-6.568,11.819-9.266
		c-6.105-0.283-11.895-0.923-17.358-1.916c-5.466-0.991-10.686-2.414-15.654-4.26c2.269,4.547,4.293,9.088,6.071,13.631
		C260.225,298.888,261.678,303.36,262.816,307.759z"/>
	<path d="M339.916,253.232c-5.824-4.825-17.145-9.158-33.971-12.992s-34.397-5.75-52.715-5.75c-5.111,0-8.732,0.852-10.861,2.555
		c-2.131,1.704-3.196,4.615-3.196,8.732c0,9.659,5.396,16.649,16.188,20.98c10.789,4.334,28.254,6.496,52.395,6.496h8.733
		c1.988,0,3.585,0.745,4.792,2.236c1.203,1.49,2.023,3.727,2.45,6.709c-2.418,2.271-7.385,4.866-14.91,7.775
		c-7.528,2.91-13.279,5.785-17.252,8.625c-8.52,6.25-15.371,13.667-20.553,22.256c-5.186,8.595-7.775,16.721-7.775,24.388
		c0,4.687,1.098,10.33,3.303,16.933c2.201,6.604,3.301,10.686,3.301,12.246v1.492l-0.426,1.916
		c-6.25-0.426-11.182-4.079-14.803-10.969c-3.621-6.887-5.431-16.08-5.431-27.582v-1.916c-1.139,0.994-2.237,1.703-3.302,2.129
		c-1.064,0.427-2.236,0.64-3.514,0.64c-1.278,0-2.486-0.106-3.622-0.319c-1.139-0.213-2.416-0.532-3.833-0.959
		c0.426,1.565,0.745,3.089,0.958,4.58s0.319,2.662,0.319,3.515c0,5.254-2.059,9.765-6.177,13.524
		c-4.12,3.762-9.02,5.644-14.696,5.644c-8.944,0-18.032-4.366-27.262-13.099c-9.232-8.732-13.844-17.285-13.844-25.666
		c0-1.562,0.177-2.945,0.532-4.152c0.352-1.202,0.959-2.234,1.81-3.086c1.988,2.416,4.758,5.963,8.307,10.649
		c9.372,12.921,18.03,19.382,25.985,19.382c2.694,0,5.111-0.853,7.241-2.557c2.13-1.703,3.194-3.479,3.194-5.324
		c0-2.129-1.42-5.678-4.26-10.65c-2.843-4.969-6.744-10.575-11.715-16.826c-5.679-7.24-10.403-12.529-14.163-15.867
		c-3.763-3.334-6.783-5.005-9.052-5.005c-4.973,0-9.552,2.661-13.737,7.986c-4.189,5.325-6.284,11.608-6.284,18.85
		c0,5.824,1.456,12.32,4.367,19.487c2.908,7.172,7.135,14.378,12.673,21.619c8.377,11.218,18.775,19.84,31.203,25.875
		c12.424,6.041,26.162,9.052,41.213,9.052c27.688,0,50.868-10.329,69.54-30.987c18.669-20.66,28.008-46.537,28.008-77.635
		c0-9.51-0.713-17.07-2.13-22.682C345.525,259.87,343.183,255.788,339.916,253.232z"/>
</g>
</svg>
